# xmcd
# 
# Track frame offsets:
#   150
#   18459
#   35738
#   53865
#   73975
#   87235
#   106557
#   124555
#   139626
# 
# Disc length: 2091 seconds
# 
# Revision: 1
# Processed by: cddbd v1.5.1PL0 Copyright (c) Steve Scherf et al.
# Submitted via: VOLTOCDX V1.0.24 
# 
DISCID=75082909
DTITLE=Clint Yates - The Tinman
DYEAR=2005
DGENRE=Description of the extended genre
TTITLE0=Session_1_Track1
TTITLE1=Session_1_Track2
TTITLE2=Session_1_Track3
TTITLE3=Session_1_Track4
TTITLE4=Session_1_Track5
TTITLE5=Session_1_Track6
TTITLE6=Session_1_Track7
TTITLE7=Session_1_Track8
TTITLE8=Session_1_Track9
EXTD=Extended CD description
EXTT0=
EXTT1=
EXTT2=
EXTT3=
EXTT4=
EXTT5=
EXTT6=
EXTT7=
EXTT8=
PLAYORDER=
